<svg xmlns="http://www.w3.org/2000/svg" xmlns:xlink="http://www.w3.org/1999/xlink" width="223" height="48" viewBox="0 0 223 48"><defs><path id="logo-a" d="M57.7920004,33.3839999 L57.7920004,13.8679967 C57.7920004,13.4619966 58.0300004,13.2099966 58.4220005,13.2099966 L67.0880019,13.2099966 C70.2940024,13.2099966 72.8840028,15.393997 72.8840028,18.6419975 C72.8840028,20.1819977 72.2680027,21.2319979 71.2600026,22.2399981 C72.8700028,23.3179982 74.046003,24.9699985 74.046003,27.601999 C74.046003,31.2279995 71.2740026,34 67.984002,34 L58.4220005,34 C58.0440004,34 57.7920004,33.79 57.7920004,33.3839999 Z M70.3640024,27.5319989 C70.3640024,25.4739986 68.9500022,24.0879984 67.3120019,24.0879984 L61.656001,24.0879984 L61.656001,30.7939995 L67.3120019,30.7939995 C68.9220022,30.7939995 70.3640024,29.6179993 70.3640024,27.5319989 Z M69.0340022,18.7259975 C69.0340022,17.0179972 67.620002,16.4019971 65.7160017,16.4019971 L61.656001,16.4019971 L61.656001,21.1619979 L66.3740018,21.1619979 C67.928002,21.1619979 69.0340022,20.2379977 69.0340022,18.7259975 Z M87.1080019,33.2299999 C87.0660019,32.8799998 87.0100019,32.5299998 86.9540019,32.1799997 C86.2820018,33.1879999 85.4000016,34.266 83.3420013,34.266 L83.2720013,34.266 C79.2960006,34.266 76.4960002,31.1719995 76.4960002,27.1679989 C76.4960002,23.1079982 79.2540006,20.0419977 83.2720013,20.0419977 C85.3720016,20.0419977 86.4920018,21.1899979 87.1640019,22.3799981 L87.416002,21.0219979 C87.570002,20.4059978 87.654002,20.2519977 88.1860021,20.2519977 L89.6980024,20.2519977 C90.1320024,20.2519977 90.4960025,20.5459978 90.4960025,21.0079979 L90.4960025,33.2999999 C90.4960025,33.748 90.1320024,34 89.6980024,34 L87.8920021,34 C87.332002,34 87.2060019,33.6919999 87.1080019,33.2299999 Z M80.1500008,27.1959989 C80.1500008,29.2539992 81.480001,30.8779995 83.5100013,30.8779995 C85.5820017,30.8779995 86.8980019,29.2959992 86.8980019,27.2099989 C86.8980019,25.1939986 85.6240017,23.4719983 83.5100013,23.4719983 C81.452001,23.4719983 80.1500008,25.1659986 80.1500008,27.1959989 Z M103.040002,34.28 C103.194002,33.79 103.236002,32.4879998 103.236002,31.8439996 C102.634002,32.8939998 101.598002,33.972 99.8480013,33.972 C95.9560007,33.972 93.1000002,31.1019995 93.1000002,27.1259989 C93.1000002,23.1919982 95.9560007,20.0839977 99.8480013,20.0839977 C101.626002,20.0839977 103.166002,21.1199979 103.502002,22.3519981 L103.908002,21.0639979 C104.090002,20.5739978 104.160002,20.2659977 104.734002,20.2659977 L106.344002,20.2659977 C106.736002,20.2659977 107.198002,20.5459978 107.198002,21.0639979 L107.198002,32.8939998 C107.198002,37.3600006 104.090002,39.852001 100.086001,39.852001 C98.5320011,39.852001 96.4040007,39.4180009 95.1300005,38.2840007 C94.9200005,38.1300007 94.7520005,37.8780006 94.7520005,37.5840006 C94.7520005,37.4160006 94.7940005,37.2340005 94.9480005,37.0240005 L96.0820007,35.5120002 C96.2780007,35.3020002 96.4600007,35.1900002 96.6420008,35.1900002 C96.7960008,35.1900002 96.9920008,35.2740002 97.2300009,35.4420002 C97.958001,36.1280003 99.1900012,36.2540004 99.9600013,36.2540004 C101.234002,36.2540004 102.704002,35.5400003 103.040002,34.28 Z M96.9780008,27.1259989 C96.9780008,29.0439992 98.224001,30.5139994 100.086001,30.5139994 C101.920002,30.5139994 103.474002,28.9739992 103.474002,27.1679989 C103.474002,25.3619986 101.920002,23.7099983 100.086001,23.7099983 C98.224001,23.7099983 96.9780008,25.2779986 96.9780008,27.1259989 Z M126.812003,14.9039969 C127.022003,15.0299969 127.162003,15.2259969 127.162003,15.449997 C127.162003,15.603997 127.092003,15.687997 127.022003,15.841997 L125.608003,17.8999974 C125.482003,18.0819974 125.328003,18.1799974 125.174003,18.1799974 C125.076003,18.1799974 124.908003,18.1519974 124.726003,18.0259974 C123.494002,17.1859972 122.206002,16.6539972 120.680002,16.6539972 C116.690001,16.6539972 113.722001,19.8599977 113.722001,23.6259983 C113.722001,27.4899989 116.788001,30.5699994 120.526002,30.5699994 C121.912002,30.5699994 123.256002,30.1359994 124.558003,29.2679992 L125.020003,29.0159992 C125.062003,29.0159992 125.090003,29.0019992 125.132003,29.0019992 C125.426003,29.0019992 127.162003,31.2559996 127.162003,31.8019996 C127.162003,32.0399997 127.036003,32.1799997 126.826003,32.3339997 C125.048003,33.5659999 122.962002,34.3080001 120.610002,34.3080001 C114.674001,34.3080001 109.928,29.5339993 109.928,23.6259983 C109.928,17.7179973 114.702001,12.9159965 120.624002,12.9159965 C122.920002,12.9159965 125.006003,13.6299967 126.812003,14.9039969 Z M140.826002,34 C139.706002,34 139.706002,33.0199998 139.440002,32.0539997 C138.572002,33.0339998 137.466001,34.168 135.646001,34.168 C132.174001,34.168 130.34,31.8439996 130.34,28.6379991 L130.34,21.0779979 C130.34,20.5599978 130.704,20.2519977 131.152,20.2519977 L133.448001,20.2519977 C134.050001,20.2519977 134.232001,20.5319978 134.232001,21.0499979 L134.232001,27.993999 C134.232001,29.5059993 135.170001,30.4999994 136.640001,30.4999994 C137.844002,30.4999994 139.300002,29.5059993 139.300002,28.077999 L139.300002,21.0219979 C139.300002,20.5039978 139.580002,20.2519977 140.126002,20.2519977 L142.380002,20.2519977 C142.926002,20.2519977 143.192002,20.5739978 143.192002,21.0219979 L143.192002,33.1599999 C143.192002,33.706 142.912002,34 142.338002,34 L140.826002,34 Z M146.58,33.1739999 L146.58,21.1199979 C146.58,20.5599978 147.056,20.3219978 147.448,20.3219978 L148.974001,20.3219978 C149.702001,20.3219978 149.800001,21.2319979 150.248001,22.2119981 C150.850001,21.0919979 151.578001,20.1119977 153.062001,20.1119977 C154.630002,20.1119977 155.246002,20.4619978 156.520002,21.3999979 C156.814002,21.553998 156.968002,21.777998 156.968002,22.043998 C156.968002,22.2119981 156.912002,22.3939981 156.800002,22.5899981 L155.820002,24.1299984 C155.554002,24.5919985 155.022002,24.8159985 154.616002,24.4379984 C153.930002,23.8359983 153.524001,23.7379983 152.726001,23.7379983 C151.620001,23.7379983 151.074001,24.4099984 150.472001,25.3759986 L150.472001,33.1739999 C150.472001,33.72 150.220001,34 149.604001,34 L147.42,34 C146.874,34 146.58,33.72 146.58,33.1739999 Z M168.504002,33.2299999 C168.462002,32.8799998 168.406002,32.5299998 168.350002,32.1799997 C167.678002,33.1879999 166.796002,34.266 164.738001,34.266 L164.668001,34.266 C160.692001,34.266 157.892,31.1719995 157.892,27.1679989 C157.892,23.1079982 160.650001,20.0419977 164.668001,20.0419977 C166.768002,20.0419977 167.888002,21.1899979 168.560002,22.3799981 L168.812002,21.0219979 C168.966002,20.4059978 169.050002,20.2519977 169.582002,20.2519977 L171.094002,20.2519977 C171.528002,20.2519977 171.892002,20.5459978 171.892002,21.0079979 L171.892002,33.2999999 C171.892002,33.748 171.528002,34 171.094002,34 L169.288002,34 C168.728002,34 168.602002,33.6919999 168.504002,33.2299999 Z M161.546001,27.1959989 C161.546001,29.2539992 162.876001,30.8779995 164.906001,30.8779995 C166.978002,30.8779995 168.294002,29.2959992 168.294002,27.2099989 C168.294002,25.1939986 167.020002,23.4719983 164.906001,23.4719983 C162.848001,23.4719983 161.546001,25.1659986 161.546001,27.1959989 Z M175.826,20.2379977 L175.826,16.4719971 C175.826,16.0239971 176.106,15.715997 176.680001,15.645997 L178.836001,15.3379969 C178.906001,15.3239969 178.976001,15.3239969 179.032001,15.3239969 C179.578001,15.3239969 179.704001,15.673997 179.704001,16.1639971 L179.704001,20.2379977 L181.384001,20.2379977 C181.846001,20.2379977 182.154001,20.5179978 182.154001,21.0639979 L182.154001,22.6039981 C182.154001,23.2059982 181.846001,23.4719983 181.384001,23.4719983 L179.704001,23.4719983 L179.704001,33.1739999 C179.704001,33.72 179.368001,34 178.808001,34 L176.652001,34 C176.106,34 175.826,33.72 175.826,33.1739999 L175.826,23.4719983 L175.07,23.4719983 C174.524,23.4719983 174.244,23.1779982 174.244,22.6039981 L174.244,21.0639979 C174.244,20.5179978 174.524,20.2379977 175.07,20.2379977 L175.826,20.2379977 Z M188.454001,21.0219979 L188.454001,33.2299999 C188.454001,33.72 188.146001,34 187.642001,34 L185.332,34 C184.814,34 184.562,33.748 184.562,33.2299999 L184.562,21.0219979 C184.562,20.5879978 184.842,20.2379977 185.332,20.2379977 L187.642001,20.2379977 C188.020001,20.2379977 188.454001,20.5739978 188.454001,21.0219979 Z M184.212,16.3739971 C184.212,15.1419969 185.192,14.1059967 186.466001,14.1059967 C187.754001,14.1059967 188.706001,15.1419969 188.706001,16.3739971 C188.706001,17.6059973 187.754001,18.5999975 186.466001,18.5999975 C185.192,18.5999975 184.212,17.6059967 184.212,16.3739971 Z M191.632,27.1259989 C191.632,23.1359982 194.838001,19.9999977 198.870001,19.9999977 C202.846002,19.9999977 206.066003,23.1359982 206.066003,27.1259989 C206.066003,31.1159995 202.846002,34.294 198.870001,34.294 C194.838001,34.294 191.632,31.1159995 191.632,27.1259989 Z M195.510001,27.1259989 C195.510001,29.0579992 196.868001,30.6959995 198.828001,30.6959995 C200.760002,30.6959995 202.076002,29.0579992 202.076002,27.1259989 C202.076002,25.2639986 200.760002,23.6679983 198.828001,23.6679983 C196.868001,23.6679983 195.510001,25.2639986 195.510001,27.1259989 Z M211.722001,20.2519977 C212.842001,20.2519977 212.702001,21.0639979 212.968001,22.029998 C213.822001,21.0639979 215.208001,20.0839977 217.042002,20.0839977 C220.514002,20.0839977 222.488003,22.4079981 222.488003,25.6139986 L222.488003,33.1739999 C222.488003,33.6919999 222.124002,34 221.676002,34 L219.380002,34 C218.778002,34 218.596002,33.72 218.596002,33.2019999 L218.596002,26.2579987 C218.596002,24.7459985 217.518002,23.7519983 216.062001,23.7519983 C214.858001,23.7519983 213.472001,24.8299985 213.248001,26.1739987 L213.248001,33.2299999 C213.248001,33.748 212.968001,34 212.422001,34 L210.168001,34 C209.622,34 209.356,33.6779999 209.356,33.2299999 L209.356,21.0919979 C209.356,20.5459978 209.636,20.2519977 210.210001,20.2519977 L211.722001,20.2519977 Z"/><rect id="logo-b" width="40" height="48" x="0" y="0"/><rect id="logo-d" width="40" height="48" x="0" y="0"/><rect id="logo-f" width="40" height="48" x="0" y="0"/></defs><g fill="none" fill-rule="evenodd"><g fill-rule="nonzero"><use fill="#000" xlink:href="#logo-a"/><use fill="#111" xlink:href="#logo-a"/></g><mask id="logo-c" fill="#fff"><use xlink:href="#logo-b"/></mask><path fill="#111" fill-rule="nonzero" d="M4,17.3931444 L1.0658141e-14,13.5500071 L1.0658141e-14,0 L40,0 L40,14.2356511 L36,17.8582927 L36,4 L4,4 L4,17.3931444 Z M4,22.940189 L4,44 L36,44 L36,23.2549149 L40,19.6322734 L40,48 L1.0658141e-14,48 L1.0658141e-14,19.0970517 L4,22.940189 Z" mask="url(#logo-c)"/><mask id="logo-e" fill="#fff"><use xlink:href="#logo-d"/></mask><polygon fill="#111" fill-rule="nonzero" points="20 26.879 40.651 8.023 43.349 10.977 20.349 31.977 20 31.595 19.651 31.977 -3.349 10.977 -.651 8.023" mask="url(#logo-e)"/><mask id="logo-g" fill="#fff"><use xlink:href="#logo-f"/></mask><circle cx="20" cy="16" r="3" fill="#111" fill-rule="nonzero" mask="url(#logo-g)"/></g></svg>