<svg xmlns="http://www.w3.org/2000/svg" xmlns:xlink="http://www.w3.org/1999/xlink" width="223" height="48" viewBox="0 0 223 48"><defs><rect id="logo-a" width="40" height="48" x="0" y="0"/></defs><g fill="none" fill-rule="evenodd"><text fill="#111" font-family="Cocomat-Bold, Cocomat" font-size="28" font-weight="bold"><tspan x="55.58" y="34">BagCuration</tspan></text><mask id="logo-b" fill="#fff"><use xlink:href="#logo-a"/></mask><path fill="#111" fill-rule="nonzero" d="M4,17.3931444 L1.0658141e-14,13.5500071 L1.0658141e-14,0 L40,0 L40,14.2356511 L36,17.8582927 L36,4 L4,4 L4,17.3931444 Z M4,22.940189 L4,44 L36,44 L36,23.2549149 L40,19.6322734 L40,48 L1.0658141e-14,48 L1.0658141e-14,19.0970517 L4,22.940189 Z" mask="url(#logo-b)"/><path stroke="#111" stroke-width="4" d="M-2,9.5 L21,30.5" mask="url(#logo-b)"/><path stroke="#111" stroke-width="4" d="M19,9.5 L42,30.5" mask="url(#logo-b)" transform="matrix(-1 0 0 1 61 0)"/><circle cx="20" cy="16" r="3" fill="#111" mask="url(#logo-b)"/></g></svg>